<?xml version="1.0" ?><svg style="enable-background:new 0 0 48 48;" version="1.1" viewBox="0 0 48 48" xml:space="preserve" xmlns="http://www.w3.org/2000/svg" xmlns:xlink="http://www.w3.org/1999/xlink"><g id="Icons"><g><path d="M28.5368,29.11448h3.75c0.65002,0,1.29004-0.53003,1.42999-1.19    c0.13-0.66003-0.28998-1.17999-0.94-1.17999h-3.75l1.12006-5.49005h3.75995c0.65002,0,1.29004-0.52997,1.42004-1.19    c0.13995-0.64996-0.29004-1.17999-0.94-1.17999h-3.75l0.73999-3.58997c0.13-0.65002-0.29004-1.19-0.94-1.19    c-0.65002,0-1.28998,0.53998-1.42999,1.19l-0.73999,3.58997h-6.29004l0.73004-3.58997c0.13995-0.65002-0.28003-1.19-0.93005-1.19    c-0.65997,0-1.29999,0.53998-1.42999,1.19l-0.73999,3.58997H15.7168c-0.64996,0-1.29999,0.53003-1.42999,1.17999    c-0.13995,0.66003,0.29004,1.19,0.94,1.19h3.89001l-1.12927,5.48663h-3.89008c-0.651,0-1.29102,0.5224-1.42773,1.18726    c-0.13422,0.65295,0.28857,1.18726,0.93958,1.18726h3.89728 M19.86682,29.11448h6.29999 M26.6568,26.74448h-6.29999l1.13-5.49005    h6.29999L26.6568,26.74448z" style="fill:#4AA0EC;"/><g><line style="fill:none;stroke:#303030;stroke-width:0.7;stroke-linecap:round;stroke-linejoin:round;stroke-miterlimit:10;" x1="17.99155" x2="19.11916" y1="26.74109" y2="21.25605"/><line style="fill:none;stroke:#303030;stroke-width:0.7;stroke-linecap:round;stroke-linejoin:round;stroke-miterlimit:10;" x1="20.35879" x2="21.4864" y1="26.74109" y2="21.25605"/><path d="     M19.60731,18.88158l0.73709-3.58546c0.13424-0.65298,0.7767-1.18724,1.42769-1.18724s1.07379,0.53426,0.93955,1.18724     l-0.7371,3.58546" style="fill:none;stroke:#303030;stroke-width:0.7;stroke-linecap:round;stroke-linejoin:round;stroke-miterlimit:10;"/></g><g><line style="fill:none;stroke:#303030;stroke-width:0.7;stroke-linecap:round;stroke-linejoin:round;stroke-miterlimit:10;" x1="26.65564" x2="27.78325" y1="26.74109" y2="21.25605"/><path d="     M28.27139,18.88158l0.7371-3.58546c0.13424-0.65298,0.7767-1.18724,1.42769-1.18724s1.07379,0.53426,0.93955,1.18724     l-0.73709,3.58546" style="fill:none;stroke:#303030;stroke-width:0.7;stroke-linecap:round;stroke-linejoin:round;stroke-miterlimit:10;"/><line style="fill:none;stroke:#303030;stroke-width:0.7;stroke-linecap:round;stroke-linejoin:round;stroke-miterlimit:10;" x1="29.02287" x2="30.15048" y1="26.74109" y2="21.25605"/></g><g><path d="     M30.63863,18.88158h3.75207c0.65099,0,1.07379,0.53426,0.93955,1.18724s-0.7767,1.18724-1.42769,1.18724h-3.75207" style="fill:none;stroke:#303030;stroke-width:0.7;stroke-linecap:round;stroke-linejoin:round;stroke-miterlimit:10;"/><line style="fill:none;stroke:#303030;stroke-width:0.7;stroke-linecap:round;stroke-linejoin:round;stroke-miterlimit:10;" x1="28.27139" x2="21.97454" y1="18.88158" y2="18.88158"/><line style="fill:none;stroke:#303030;stroke-width:0.7;stroke-linecap:round;stroke-linejoin:round;stroke-miterlimit:10;" x1="27.78325" x2="21.4864" y1="21.25605" y2="21.25605"/><path d="     M19.11916,21.25605h-3.8941c-0.65099,0-1.07379-0.53426-0.93955-1.18724s0.7767-1.18724,1.42769-1.18724h3.8941" style="fill:none;stroke:#303030;stroke-width:0.7;stroke-linecap:round;stroke-linejoin:round;stroke-miterlimit:10;"/></g><g><line style="fill:none;stroke:#303030;stroke-width:0.7;stroke-linecap:round;stroke-linejoin:round;stroke-miterlimit:10;" x1="26.16749" x2="19.87065" y1="29.11557" y2="29.11557"/><line style="fill:none;stroke:#303030;stroke-width:0.7;stroke-linecap:round;stroke-linejoin:round;stroke-miterlimit:10;" x1="26.65564" x2="20.35879" y1="26.74109" y2="26.74109"/><path d="     M29.02287,26.74109h3.75207c0.65099,0,1.07623,0.52238,0.93955,1.18724c-0.13424,0.65298-0.7767,1.18724-1.42769,1.18724     h-3.75207" style="fill:none;stroke:#303030;stroke-width:0.7;stroke-linecap:round;stroke-linejoin:round;stroke-miterlimit:10;"/><path d="     M17.50341,29.11557h-3.8941c-0.65099,0-1.07379-0.53426-0.93955-1.18724c0.13668-0.66485,0.7767-1.18724,1.42769-1.18724h3.8941" style="fill:none;stroke:#303030;stroke-width:0.7;stroke-linecap:round;stroke-linejoin:round;stroke-miterlimit:10;"/></g><g><path d="M26.16473,29.11557l-0.73004,3.58997c-0.13995,0.65002,0.28003,1.19,0.93005,1.19     c0.65997,0,1.29999-0.53998,1.42999-1.19l0.73999-3.58997" style="fill:#4AA0EC;"/><path d="M17.5047,29.11557l-0.73999,3.58997c-0.13,0.65002,0.29004,1.19,0.94,1.19     c0.65002,0,1.28998-0.53998,1.42999-1.19l0.73999-3.58997" style="fill:#4AA0EC;"/><path d="     M28.53424,29.11842l-0.73709,3.58546c-0.13424,0.65298-0.7767,1.18724-1.42769,1.18724     c-0.65099,0-1.07379-0.53426-0.93955-1.18724l0.7371-3.58546" style="fill:none;stroke:#303030;stroke-width:0.7;stroke-linecap:round;stroke-linejoin:round;stroke-miterlimit:10;"/><path d="     M19.87015,29.11842l-0.7371,3.58546c-0.13424,0.65298-0.7767,1.18724-1.42769,1.18724s-1.07379-0.53426-0.93955-1.18724     l0.73709-3.58546" style="fill:none;stroke:#303030;stroke-width:0.7;stroke-linecap:round;stroke-linejoin:round;stroke-miterlimit:10;"/></g></g></g></svg>