<?xml version="1.0" ?><svg style="enable-background:new 0 0 48 48;" version="1.1" viewBox="0 0 48 48" xml:space="preserve" xmlns="http://www.w3.org/2000/svg" xmlns:xlink="http://www.w3.org/1999/xlink"><g id="Padding__x26__Artboard"/><g id="Icons"><g><path d="M23.99878,21.86816l13.18646-9.08105l0.6861-0.4472c-0.2453-0.185-0.54132-0.29401-0.86035-0.29401    H10.98901c-0.31018,0-0.59601,0.10675-0.83667,0.28308l0.65924,0.45886L23.99878,21.86816z M23.79468,14.87598h-6.7749    c-0.19336,0-0.3501-0.15625-0.3501-0.34961s0.15674-0.34961,0.3501-0.34961h6.7749c0.19336,0,0.3501,0.15625,0.3501,0.34961    S23.98804,14.87598,23.79468,14.87598z M27.07935,14.87598h-1.396c-0.19336,0-0.3501-0.15625-0.3501-0.34961    s0.15674-0.34961,0.3501-0.34961h1.396c0.19336,0,0.3501,0.15625,0.3501,0.34961S27.27271,14.87598,27.07935,14.87598z" style="fill:#303030;"/><path d="M38.30914,12.85254l-0.58246,0.41156l-13.52917,9.31696    c-0.06006,0.04102-0.12939,0.06152-0.19873,0.06152s-0.13867-0.02051-0.19873-0.06152l-13.52795-9.31482l-0.57678-0.42169    c-0.14691,0.25757-0.23462,0.55981-0.23462,0.88593l0.00244,21.87402c0,0.14453,0.08838,0.27344,0.22266,0.32617    c0.0415,0.01562,0.08447,0.02344,0.12744,0.02344c0.0957,0,0.18945-0.03906,0.25684-0.11133l3.06201-3.30664h23.87891    c0.84277,0,1.52832-0.75098,1.52832-1.67383V13.73047C38.53931,13.40784,38.45245,13.10895,38.30914,12.85254z" style="fill:#303030;"/></g></g></svg>