<svg width="1000" height="1000" viewBox="0 0 1000 1000" fill="none" xmlns="http://www.w3.org/2000/svg">
<g clip-path="url(#clip0)">
<path d="M500 54C223.859 54 0.00015683 277.859 0.00015683 554C-0.0596873 629.501 17.0079 704.033 49.9183 771.984C82.8287 839.935 130.724 899.535 190 946.299C224.782 895.465 271.322 853.781 325.666 824.788C380.01 795.795 440.55 780.352 502.141 779.77C563.732 779.188 624.553 793.485 679.435 821.445C734.317 849.406 781.637 890.204 817.373 940.371C874.528 893.514 920.56 834.545 952.144 767.727C983.727 700.908 1000.07 627.907 1000 554C1000 277.859 776.141 54 500 54ZM745.928 546.611C736.076 609.008 722.939 715.741 511.117 707.53H510.673C298.851 715.741 285.714 609.008 275.862 546.611C266.01 484.213 280.788 408.68 280.788 408.68C318.555 191.931 510.673 205.067 510.673 205.067C511.166 204.476 511.445 204.213 511.494 204.246C511.544 204.279 511.412 204.558 511.117 205.067C511.117 205.067 703.235 191.931 741.002 408.68C741.002 408.68 755.78 484.213 745.928 546.611Z" fill="#1AA6EE"/>
</g>
<defs>
<clipPath id="clip0">
<rect width="1000" height="1000" fill="white"/>
</clipPath>
</defs>
</svg>
