<svg fill="none" height="24" viewBox="0 0 24 24" width="24" xmlns="http://www.w3.org/2000/svg"><g fill="#292d32"><path d="m7.99935 21.75c-.03 0-.06 0-.08 0-.41-.05-.71-.42-.66-.83l2-17.99997c.05-.41.42-.7.83005-.66.41.05.71.42.66.83l-2.00005 17.99997c-.05.38-.37.66-.75.66z"/><path d="m13.9994 21.75c-.03 0-.06 0-.08 0-.41-.05-.71-.42-.66-.83l2-17.99997c.05-.41.41-.7.83-.66.41.05.71.42.66.83l-2 17.99997c-.05.38-.37.66-.75.66z"/><path d="m21.5 9.75h-18c-.41 0-.75-.34-.75-.75s.34-.75.75-.75h18c.41 0 .75.34.75.75s-.34.75-.75.75z"/><path d="m20.5 15.75h-18c-.41 0-.75-.34-.75-.75s.34-.75.75-.75h18c.41 0 .75.34.75.75s-.34.75-.75.75z"/></g></svg>